<?xml version="1.0" standalone="no"?>
<!DOCTYPE svg PUBLIC "-//W3C//DTD SVG 20010904//EN"
 "http://www.w3.org/TR/2001/REC-SVG-20010904/DTD/svg10.dtd">
<svg xmlns="http://www.w3.org/2000/svg" viewBox="0 0 460 460" xml:space="preserve"><path style="fill:#ffd488" d="M160 105h-30V65l30-10z"/><path style="fill:#ffb739" d="M330 105h-30V55l30 10z"/><path style="fill:#233145" d="m230 35-20 15 20 15h100V35z"/><path style="fill:#466289" d="M130 35h100v30H130zm80 200 20 190h230V165z"/><path style="fill:#233145" d="M460 95v70l-190 80-60 10 20-160z"/><path style="fill:#6b81a1" d="M0 165v260h230V235z"/><path style="fill:#466289" d="M230 95v160l-40-10L0 165V95z"/><path style="fill:#fb992d" d="M270 275v30h-40l-10-30 23.5-10z"/><path style="fill:#ffb739" d="M270 245v30h-50l10-30z"/><path style="fill:#ffb739" d="M230 275v30h-40v-30l20-10z"/><path style="fill:#ffd488" d="M190 245h40v30h-40z"/></svg>
